<svg xmlns="http://www.w3.org/2000/svg" viewBox="0 0 512 512"><defs><style>.cls-1{fill:#828181;}</style></defs><g id="katman_2" data-name="katman 2"><g id="Layer_1" data-name="Layer 1"><path class="cls-1" d="M490.67,128V85.33A21.33,21.33,0,0,0,469.33,64H448V21.33A21.33,21.33,0,0,0,426.67,0H85.33A21.33,21.33,0,0,0,64,21.33V64H42.67A21.34,21.34,0,0,0,21.33,85.33V128A21.33,21.33,0,0,0,0,149.33V490.67A21.33,21.33,0,0,0,21.33,512H490.67A21.33,21.33,0,0,0,512,490.67V149.33A21.33,21.33,0,0,0,490.67,128Zm-384-85.33H405.33V64H106.67ZM64,106.67H448V128H64ZM469.33,469.33H42.67V170.67H469.33V469.33Z"/><path class="cls-1" d="M169.61,448h7.13c34.75,0,57.92-23.14,57.92-57.9V274.83l128-16V320H335.24c-34.83,0-57.92,29.65-57.92,65a63,63,0,0,0,63,63h7.12c34.76,0,57.92-23.14,57.92-57.9V341.5c0-.05,0-.11,0-.17V234.58c0-.63,0-1.28-.1-1.92l0-.33,0-.31c-.06-.49-.15-1-.24-1.45,0-.13-.05-.26-.08-.39-.12-.57-.27-1.13-.43-1.69,0-.11-.07-.22-.11-.33-.18-.57-.38-1.13-.61-1.67,0-.09-.07-.17-.1-.25-.25-.57-.51-1.12-.8-1.66l-.1-.17c-.3-.55-.63-1.09-1-1.61l-.09-.13c-.36-.52-.73-1-1.13-1.51l-.11-.13c-.4-.48-.82-.94-1.25-1.38l-.15-.15c-.43-.42-.88-.83-1.34-1.21l-.21-.18c-.45-.37-.92-.72-1.4-1.05l-.27-.18c-.48-.31-1-.61-1.47-.89l-.31-.17c-.51-.26-1-.51-1.55-.74l-.31-.13c-.55-.23-1.1-.43-1.67-.61l-.26-.08c-.6-.18-1.2-.34-1.82-.47l-.19,0q-1-.19-1.95-.3h-.14a19.24,19.24,0,0,0-2-.1h-.17c-.64,0-1.28,0-1.93.09l-.33,0-.31,0L210.69,234.83c-.49.06-1,.15-1.45.24l-.4.08c-.57.12-1.13.26-1.68.43l-.34.1c-.57.19-1.12.39-1.67.62l-.25.1c-.56.25-1.12.51-1.66.8l-.16.09c-.56.31-1.09.63-1.61,1l-.13.09c-.53.36-1,.73-1.52,1.13l-.12.11a18.09,18.09,0,0,0-1.38,1.25l-.15.15c-.43.43-.83.87-1.22,1.34l-.17.21c-.37.45-.72.92-1.05,1.4l-.18.27c-.32.48-.62,1-.89,1.47l-.17.31c-.27.51-.52,1-.75,1.55l-.12.31c-.23.54-.44,1.1-.62,1.67,0,.08-.05.17-.08.26-.18.59-.33,1.2-.46,1.81l0,.19c-.13.65-.23,1.3-.3,2,0,0,0,.09,0,.13-.06.67-.1,1.35-.1,2V320H164.58c-34.84,0-57.92,29.65-57.92,65A63,63,0,0,0,169.61,448Zm193.05-57.9c0,11.19-4.05,15.23-15.26,15.23h-7.12A20.29,20.29,0,0,1,320,385.05c0-13.84,6.65-22.38,15.25-22.38h27.42ZM164.58,362.67H192V390.1c0,11.19-4.05,15.23-15.25,15.23h-7.13a20.29,20.29,0,0,1-20.29-20.28C149.32,371.21,156,362.67,164.58,362.67Z"/></g></g></svg>