<svg width="15" height="20" viewBox="0 0 15 20" fill="none" xmlns="http://www.w3.org/2000/svg">
<mask id="path-1-inside-1" fill="white">
<path fill-rule="evenodd" clip-rule="evenodd" d="M2.05514 7.6666C2.05514 4.82904 4.35543 2.52875 7.19299 2.52875C10.0305 2.52875 12.3308 4.82904 12.3308 7.66659V14.4828L14.386 17.0115H0L2.05514 14.4828L2.05514 7.6666Z"/>
</mask>
<path d="M2.05514 7.6666L3.55514 7.6666V7.6666H2.05514ZM12.3308 14.4828H10.8308V15.0154L11.1668 15.4288L12.3308 14.4828ZM14.386 17.0115V18.5115H17.5379L15.55 16.0655L14.386 17.0115ZM0 17.0115L-1.16405 16.0655L-3.15198 18.5115H0V17.0115ZM2.05514 14.4828L3.21919 15.4288L3.55514 15.0154L3.55514 14.4828L2.05514 14.4828ZM7.19299 1.02875C3.527 1.02875 0.555141 4.00062 0.555141 7.6666H3.55514C3.55514 5.65747 5.18386 4.02875 7.19299 4.02875V1.02875ZM13.8308 7.66659C13.8308 4.00061 10.859 1.02875 7.19299 1.02875V4.02875C9.20211 4.02875 10.8308 5.65746 10.8308 7.66659H13.8308ZM13.8308 14.4828V7.66659H10.8308V14.4828H13.8308ZM11.1668 15.4288L13.2219 17.9575L15.55 16.0655L13.4949 13.5367L11.1668 15.4288ZM14.386 15.5115H0V18.5115H14.386V15.5115ZM1.16405 17.9575L3.21919 15.4288L0.891089 13.5367L-1.16405 16.0655L1.16405 17.9575ZM0.555141 7.6666L0.555138 14.4828L3.55514 14.4828L3.55514 7.6666L0.555141 7.6666Z" fill="#BCBCBC" mask="url(#path-1-inside-1)"/>
<mask id="path-3-inside-2" fill="white">
<path fill-rule="evenodd" clip-rule="evenodd" d="M6.16542 18.1609V18.8583C6.16542 19.4888 6.6766 20 7.30717 20C7.93773 20 8.44891 19.4888 8.44891 18.8583V18.1609H6.16542Z"/>
</mask>
<path d="M6.16542 18.1609V16.6609H4.66542V18.1609H6.16542ZM8.44891 18.1609H9.94891V16.6609H8.44891V18.1609ZM7.66542 18.8583V18.1609H4.66542V18.8583H7.66542ZM7.30717 18.5C7.50503 18.5 7.66542 18.6604 7.66542 18.8583H4.66542C4.66542 20.3173 5.84817 21.5 7.30717 21.5V18.5ZM6.94891 18.8583C6.94891 18.6604 7.10931 18.5 7.30717 18.5V21.5C8.76616 21.5 9.94891 20.3173 9.94891 18.8583H6.94891ZM6.94891 18.1609V18.8583H9.94891V18.1609H6.94891ZM8.44891 16.6609H6.16542V19.6609H8.44891V16.6609Z" fill="#BCBCBC" mask="url(#path-3-inside-2)"/>
<mask id="path-5-inside-3" fill="white">
<path fill-rule="evenodd" clip-rule="evenodd" d="M7.30716 0C6.80271 0 6.39377 0.408942 6.39377 0.913396V2.75862H8.22056V0.913395C8.22056 0.408941 7.81162 0 7.30716 0Z"/>
</mask>
<path d="M6.39377 2.75862H4.89377V4.25862H6.39377V2.75862ZM8.22056 2.75862V4.25862H9.72056V2.75862H8.22056ZM7.89377 0.913396C7.89377 1.23737 7.63114 1.5 7.30716 1.5V-1.5C5.97428 -1.5 4.89377 -0.419483 4.89377 0.913396H7.89377ZM7.89377 2.75862V0.913396H4.89377V2.75862H7.89377ZM6.39377 4.25862H8.22056V1.25862H6.39377V4.25862ZM6.72056 0.913395V2.75862H9.72056V0.913395H6.72056ZM7.30716 1.5C6.98319 1.5 6.72056 1.23737 6.72056 0.913395H9.72056C9.72056 -0.419486 8.64004 -1.5 7.30716 -1.5V1.5Z" fill="#BCBCBC" mask="url(#path-5-inside-3)"/>
</svg>
