<svg width="20" height="20" viewBox="0 0 20 20" fill="none" xmlns="http://www.w3.org/2000/svg">
<mask id="path-1-inside-1" fill="white">
<path fill-rule="evenodd" clip-rule="evenodd" d="M7.81012 1.87628C7.97767 0.796491 8.90729 0 10 0C11.0927 0 12.0223 0.796493 12.1899 1.87628L12.3077 2.63541C12.7462 2.77512 13.1675 2.95357 13.5674 3.16676L14.1958 2.70718C15.0778 2.06214 16.2984 2.15627 17.0711 2.92893C17.8437 3.7016 17.9379 4.92214 17.2928 5.80414L16.7973 6.4816C16.9881 6.86323 17.1478 7.26317 17.2728 7.67808L18.1237 7.81012C19.2035 7.97767 20 8.90729 20 10C20 11.0927 19.2035 12.0223 18.1237 12.1899L17.1871 12.3352C17.0591 12.7088 16.9029 13.0692 16.7209 13.4139L17.2928 14.1959C17.9379 15.0779 17.8437 16.2984 17.0711 17.0711C16.2984 17.8437 15.0779 17.9379 14.1958 17.2928L13.3641 16.6845C13.0383 16.8458 12.6992 16.9843 12.349 17.0981L12.1899 18.1237C12.0223 19.2035 11.0927 20 9.99999 20C8.90728 20 7.97766 19.2035 7.81011 18.1237L7.65096 17.0981C7.30075 16.9843 6.9617 16.8458 6.63588 16.6845L5.80414 17.2928C4.92214 17.9379 3.7016 17.8437 2.92894 17.0711C2.15627 16.2984 2.06214 15.0779 2.70719 14.1959L3.27905 13.4139C3.09708 13.0692 2.94086 12.7088 2.81293 12.3352L1.87628 12.1899C0.796491 12.0223 0 11.0927 0 10C0 8.90729 0.796493 7.97768 1.87628 7.81012L2.72717 7.67809C2.85224 7.26318 3.01185 6.86324 3.20265 6.48161L2.70718 5.80414C2.06214 4.92213 2.15627 3.70159 2.92893 2.92893C3.7016 2.15627 4.92214 2.06213 5.80414 2.70718L6.43255 3.16676C6.8325 2.95358 7.25377 2.77512 7.69232 2.63541L7.81012 1.87628Z"/>
</mask>
<path d="M7.81012 1.87628L9.29238 2.10628L9.29238 2.10628L7.81012 1.87628ZM12.1899 1.87628L10.7076 2.10629L10.7076 2.10629L12.1899 1.87628ZM12.3077 2.63541L10.8254 2.86542L10.9678 3.78285L11.8524 4.06465L12.3077 2.63541ZM13.5674 3.16676L12.8619 4.49045L13.6928 4.93339L14.4529 4.37752L13.5674 3.16676ZM14.1958 2.70718L15.0813 3.91794L15.0813 3.91794L14.1958 2.70718ZM17.0711 2.92893L18.1317 1.86827L18.1317 1.86827L17.0711 2.92893ZM17.2928 5.80414L16.082 4.91867L16.082 4.91867L17.2928 5.80414ZM16.7973 6.4816L15.5866 5.59612L15.0467 6.33434L15.4557 7.15238L16.7973 6.4816ZM17.2728 7.67808L15.8367 8.11101L16.1093 9.01549L17.0428 9.16035L17.2728 7.67808ZM18.1237 7.81012L17.8937 9.29238L17.8937 9.29238L18.1237 7.81012ZM18.1237 12.1899L18.3537 13.6721L18.3537 13.6721L18.1237 12.1899ZM17.1871 12.3352L16.9571 10.853L16.0616 10.9919L15.768 11.8493L17.1871 12.3352ZM16.7209 13.4139L15.3944 12.7137L14.9568 13.5427L15.5102 14.2994L16.7209 13.4139ZM17.2928 14.1959L18.5036 13.3104L18.5036 13.3104L17.2928 14.1959ZM14.1958 17.2928L13.3104 18.5036L13.3104 18.5036L14.1958 17.2928ZM13.3641 16.6845L14.2496 15.4738L13.5148 14.9364L12.6988 15.3402L13.3641 16.6845ZM12.349 17.0981L11.8855 15.6715L11.0082 15.9566L10.8668 16.8681L12.349 17.0981ZM12.1899 18.1237L10.7076 17.8937L10.7076 17.8937L12.1899 18.1237ZM7.81011 18.1237L6.32785 18.3537L6.32785 18.3537L7.81011 18.1237ZM7.65096 17.0981L9.13322 16.8681L8.99178 15.9566L8.11449 15.6715L7.65096 17.0981ZM6.63588 16.6845L7.30116 15.3401L6.48523 14.9364L5.7504 15.4738L6.63588 16.6845ZM5.80414 17.2928L6.68962 18.5036L6.68962 18.5036L5.80414 17.2928ZM2.92894 17.0711L1.86827 18.1317L1.86827 18.1317L2.92894 17.0711ZM2.70719 14.1959L1.49643 13.3104L1.49643 13.3104L2.70719 14.1959ZM3.27905 13.4139L4.48981 14.2994L5.04321 13.5427L4.60558 12.7137L3.27905 13.4139ZM2.81293 12.3352L4.23203 11.8493L3.93843 10.9919L3.04294 10.853L2.81293 12.3352ZM1.87628 12.1899L2.10628 10.7076L2.10628 10.7076L1.87628 12.1899ZM1.87628 7.81012L1.64627 6.32786L1.64627 6.32786L1.87628 7.81012ZM2.72717 7.67809L2.95718 9.16035L3.89069 9.01549L4.16334 8.11101L2.72717 7.67809ZM3.20265 6.48161L4.54431 7.15239L4.9533 6.33435L4.4134 5.59613L3.20265 6.48161ZM2.70718 5.80414L1.49643 6.68961L1.49643 6.68962L2.70718 5.80414ZM2.92893 2.92893L1.86827 1.86827L1.86827 1.86827L2.92893 2.92893ZM5.80414 2.70718L4.91867 3.91793L4.91867 3.91793L5.80414 2.70718ZM6.43255 3.16676L5.54708 4.37752L6.30715 4.9334L7.13813 4.49045L6.43255 3.16676ZM7.69232 2.63541L8.14761 4.06465L9.03222 3.78285L9.17458 2.86542L7.69232 2.63541ZM10 -1.5C8.16767 -1.5 6.60882 -0.164389 6.32786 1.64627L9.29238 2.10628C9.34652 1.75737 9.64691 1.5 10 1.5V-1.5ZM13.6721 1.64627C13.3912 -0.164387 11.8323 -1.5 10 -1.5V1.5C10.3531 1.5 10.6535 1.75737 10.7076 2.10629L13.6721 1.64627ZM13.7899 2.40541L13.6721 1.64627L10.7076 2.10629L10.8254 2.86542L13.7899 2.40541ZM14.273 1.84307C13.7939 1.58765 13.2889 1.37371 12.763 1.20618L11.8524 4.06465C12.2036 4.17652 12.5411 4.31949 12.8619 4.49045L14.273 1.84307ZM14.4529 4.37752L15.0813 3.91794L13.3104 1.49643L12.682 1.956L14.4529 4.37752ZM15.0813 3.91794C15.3663 3.70951 15.7607 3.73992 16.0104 3.9896L18.1317 1.86827C16.8361 0.572623 14.7894 0.41477 13.3104 1.49643L15.0813 3.91794ZM16.0104 3.9896C16.2601 4.23927 16.2905 4.63366 16.082 4.91867L18.5036 6.68962C19.5852 5.21062 19.4274 3.16393 18.1317 1.86827L16.0104 3.9896ZM16.082 4.91867L15.5866 5.59612L18.0081 7.36708L18.5036 6.68962L16.082 4.91867ZM18.709 7.24516C18.559 6.7476 18.3676 6.26813 18.139 5.81082L15.4557 7.15238C15.6086 7.45833 15.7365 7.77874 15.8367 8.11101L18.709 7.24516ZM18.3537 6.32786L17.5028 6.19582L17.0428 9.16035L17.8937 9.29238L18.3537 6.32786ZM21.5 10C21.5 8.16767 20.1644 6.60882 18.3537 6.32786L17.8937 9.29238C18.2426 9.34652 18.5 9.64691 18.5 10H21.5ZM18.3537 13.6721C20.1644 13.3912 21.5 11.8323 21.5 10H18.5C18.5 10.3531 18.2426 10.6535 17.8937 10.7076L18.3537 13.6721ZM17.4171 13.8175L18.3537 13.6721L17.8937 10.7076L16.9571 10.853L17.4171 13.8175ZM18.0475 14.1142C18.2655 13.7012 18.4528 13.2691 18.6062 12.8212L15.768 11.8493C15.6655 12.1484 15.5403 12.4372 15.3944 12.7137L18.0475 14.1142ZM18.5036 13.3104L17.9317 12.5285L15.5102 14.2994L16.0821 15.0813L18.5036 13.3104ZM18.1317 18.1317C19.4274 16.8361 19.5852 14.7894 18.5036 13.3104L16.0821 15.0813C16.2905 15.3663 16.2601 15.7607 16.0104 16.0104L18.1317 18.1317ZM13.3104 18.5036C14.7894 19.5852 16.8361 19.4274 18.1317 18.1317L16.0104 16.0104C15.7607 16.2601 15.3663 16.2905 15.0813 16.0821L13.3104 18.5036ZM12.4786 17.8953L13.3104 18.5036L15.0813 16.0821L14.2496 15.4738L12.4786 17.8953ZM12.8125 18.5247C13.2325 18.3883 13.639 18.2222 14.0294 18.0289L12.6988 15.3402C12.4376 15.4694 12.166 15.5804 11.8855 15.6715L12.8125 18.5247ZM13.6721 18.3537L13.8313 17.3281L10.8668 16.8681L10.7076 17.8937L13.6721 18.3537ZM9.99999 21.5C11.8323 21.5 13.3912 20.1644 13.6721 18.3537L10.7076 17.8937C10.6535 18.2426 10.3531 18.5 9.99999 18.5V21.5ZM6.32785 18.3537C6.60881 20.1644 8.16766 21.5 9.99999 21.5V18.5C9.6469 18.5 9.34651 18.2426 9.29237 17.8937L6.32785 18.3537ZM6.1687 17.3281L6.32785 18.3537L9.29237 17.8937L9.13322 16.8681L6.1687 17.3281ZM5.97059 18.0289C6.36103 18.2221 6.76748 18.3882 7.18744 18.5247L8.11449 15.6715C7.83402 15.5804 7.56237 15.4694 7.30116 15.3401L5.97059 18.0289ZM6.68962 18.5036L7.52136 17.8953L5.7504 15.4738L4.91867 16.0821L6.68962 18.5036ZM1.86827 18.1317C3.16393 19.4274 5.21062 19.5852 6.68962 18.5036L4.91867 16.0821C4.63366 16.2905 4.23927 16.2601 3.9896 16.0104L1.86827 18.1317ZM1.49643 13.3104C0.414772 14.7894 0.572622 16.8361 1.86827 18.1317L3.9896 16.0104C3.73992 15.7607 3.70951 15.3663 3.91794 15.0813L1.49643 13.3104ZM2.0683 12.5284L1.49643 13.3104L3.91794 15.0813L4.48981 14.2994L2.0683 12.5284ZM1.39384 12.8212C1.54723 13.2691 1.73451 13.7012 1.95253 14.1142L4.60558 12.7137C4.45965 12.4372 4.33448 12.1484 4.23203 11.8493L1.39384 12.8212ZM1.64627 13.6721L2.58293 13.8175L3.04294 10.853L2.10628 10.7076L1.64627 13.6721ZM-1.5 10C-1.5 11.8323 -0.164389 13.3912 1.64627 13.6721L2.10628 10.7076C1.75737 10.6535 1.5 10.3531 1.5 10H-1.5ZM1.64627 6.32786C-0.164386 6.60883 -1.5 8.16767 -1.5 10H1.5C1.5 9.64692 1.75737 9.34653 2.10629 9.29238L1.64627 6.32786ZM2.49717 6.19583L1.64627 6.32786L2.10629 9.29238L2.95718 9.16035L2.49717 6.19583ZM1.86099 5.81083C1.63235 6.26814 1.44099 6.74761 1.291 7.24517L4.16334 8.11101C4.2635 7.77875 4.39135 7.45833 4.54431 7.15239L1.86099 5.81083ZM1.49643 6.68962L1.99189 7.36709L4.4134 5.59613L3.91794 4.91866L1.49643 6.68962ZM1.86827 1.86827C0.572621 3.16392 0.414769 5.21061 1.49643 6.68961L3.91794 4.91866C3.7095 4.63366 3.73992 4.23926 3.98959 3.98959L1.86827 1.86827ZM6.68962 1.49642C5.21062 0.414764 3.16393 0.572614 1.86827 1.86827L3.98959 3.98959C4.23927 3.73992 4.63366 3.7095 4.91867 3.91793L6.68962 1.49642ZM7.31803 1.95601L6.68962 1.49642L4.91867 3.91793L5.54708 4.37752L7.31803 1.95601ZM7.23704 1.20618C6.71112 1.37371 6.20615 1.58766 5.72698 1.84307L7.13813 4.49045C7.45886 4.3195 7.79641 4.17652 8.14761 4.06465L7.23704 1.20618ZM6.32786 1.64627L6.21006 2.40541L9.17458 2.86542L9.29238 2.10628L6.32786 1.64627Z" fill="#BCBCBC" mask="url(#path-1-inside-1)"/>
<circle cx="9.99997" cy="10" r="3.89286" stroke="#BCBCBC" stroke-width="1.5" stroke-linecap="round"/>
</svg>
